<svg width="20" height="21" viewBox="0 0 20 21" fill="none" xmlns="http://www.w3.org/2000/svg">
<path d="M15.4166 3.13257H4.99992C4.08325 3.13257 3.33325 3.88257 3.33325 4.79923V9.55757C3.33325 12.7492 5.79159 15.5409 8.98325 15.6326C12.2833 15.7326 14.9999 13.0826 14.9999 9.79923V8.9659H15.4166C17.0249 8.9659 18.3333 7.65757 18.3333 6.04923C18.3333 4.4409 17.0249 3.13257 15.4166 3.13257ZM13.3333 4.79923V7.29923H4.99992V4.79923H13.3333ZM15.4166 7.29923H14.9999V4.79923H15.4166C16.1083 4.79923 16.6666 5.35757 16.6666 6.04923C16.6666 6.7409 16.1083 7.29923 15.4166 7.29923ZM4.16659 16.4659H15.8333C16.2916 16.4659 16.6666 16.8409 16.6666 17.2992C16.6666 17.7576 16.2916 18.1326 15.8333 18.1326H4.16659C3.70825 18.1326 3.33325 17.7576 3.33325 17.2992C3.33325 16.8409 3.70825 16.4659 4.16659 16.4659Z" fill="white"/>
</svg>
