<svg viewBox="0 0 78 78" fill="none" xmlns="http://www.w3.org/2000/svg">
<path d="M56.6777 21.3224C59.6325 24.2772 61.693 27.7876 62.8593 31.5173H77.2795C75.8473 24.1548 72.2798 17.1255 66.5772 11.4229C51.3467 -3.80755 26.6533 -3.80755 11.4228 11.4229C5.7202 17.1255 2.15277 24.1548 0.720535 31.5173H15.1408C16.307 27.7876 18.3676 24.2772 21.3223 21.3224C31.0854 11.5593 46.9146 11.5593 56.6777 21.3224Z"/>
<path d="M11.4228 66.5772C5.47139 60.6257 1.84553 53.2293 0.545258 45.5173L14.8601 45.5173C15.9597 49.6055 18.1138 53.4692 21.3223 56.6777C31.0854 66.4408 46.9146 66.4408 56.6777 56.6777C59.8862 53.4692 62.0403 49.6055 63.1399 45.5173L77.4548 45.5173C76.1545 53.2294 72.5286 60.6257 66.5772 66.5772C51.3467 81.8076 26.6533 81.8076 11.4228 66.5772Z" />
<path d="M39 53C46.732 53 53 46.732 53 39C53 31.268 46.732 25 39 25C31.268 25 25 31.268 25 39C25 46.732 31.268 53 39 53Z" />
</svg>
