<svg width="48" height="48" viewBox="0 0 48 48" fill="none" xmlns="http://www.w3.org/2000/svg">
    <path
        d="M38 6H10C7.78 6 6 7.78 6 10V18H10V10H38V38H10V30H6V38C6 39.0609 6.42143 40.0783 7.17157 40.8284C7.92172 41.5786 8.93913 42 10 42H38C39.0609 42 40.0783 41.5786 40.8284 40.8284C41.5786 40.0783 42 39.0609 42 38V10C42 8.93913 41.5786 7.92172 40.8284 7.17157C40.0783 6.42143 39.0609 6 38 6ZM20.16 31.16L23 34L33 24L23 14L20.16 16.82L25.34 22H6V26H25.34L20.16 31.16Z"
        fill="white" />
</svg>
    