<svg viewBox="0 0 10 10" fill="none" xmlns="http://www.w3.org/2000/svg">
<path d="M9.14458 3.82458C9.11839 3.74744 9.07018 3.67966 9.00591 3.62961C8.94164 3.57955 8.86411 3.54941 8.78291 3.54292L6.40749 3.35417L5.37957 1.07875C5.34684 1.00546 5.29359 0.943216 5.22626 0.899522C5.15893 0.855829 5.08039 0.832556 5.00013 0.832512C4.91986 0.832468 4.8413 0.855655 4.77392 0.899274C4.70654 0.942894 4.65322 1.00508 4.62041 1.07833L3.59249 3.35417L1.21707 3.54292C1.13726 3.54924 1.06096 3.57842 0.997305 3.62697C0.933646 3.67552 0.885321 3.74138 0.858113 3.81668C0.830904 3.89197 0.825965 3.97351 0.843884 4.05154C0.861804 4.12957 0.901824 4.20078 0.959157 4.25666L2.71457 5.96792L2.09374 8.65625C2.07489 8.73762 2.08093 8.82279 2.11108 8.90068C2.14123 8.97858 2.1941 9.04562 2.26282 9.0931C2.33155 9.14058 2.41296 9.1663 2.49648 9.16694C2.58001 9.16757 2.6618 9.14309 2.73124 9.09667L4.99999 7.58417L7.26874 9.09667C7.33971 9.14379 7.42342 9.16805 7.50859 9.16618C7.59376 9.16431 7.67632 9.13641 7.74516 9.08622C7.81399 9.03603 7.86581 8.96596 7.89364 8.88545C7.92147 8.80493 7.92398 8.71782 7.90082 8.63583L7.13874 5.96917L9.02874 4.26833C9.15249 4.15667 9.19791 3.9825 9.14458 3.82458Z" fill="black"/>
</svg>
