<svg width="24" height="24" viewBox="0 0 24 24" fill="none" xmlns="http://www.w3.org/2000/svg">
<path fill-rule="evenodd" clip-rule="evenodd" d="M11.5722 11.51C11.2789 11.2033 10.8656 11.05 10.3322 11.05C10.0256 11.05 9.75222 11.09 9.51222 11.17L9.49222 11.12C9.60555 10.7467 9.81222 10.4867 10.1122 10.34C10.4189 10.1933 10.8556 10.12 11.4222 10.12L11.5222 8.69C10.2222 8.69 9.26889 8.98334 8.66222 9.57C8.06222 10.1567 7.76222 11.0767 7.76222 12.33C7.76222 14.1767 8.49889 15.1 9.97222 15.1C11.3322 15.1 12.0122 14.3633 12.0122 12.89C12.0122 12.27 11.8656 11.81 11.5722 11.51ZM10.3322 12.52C10.4189 12.6267 10.4622 12.8 10.4622 13.04C10.4622 13.2733 10.4256 13.4433 10.3522 13.55C10.2789 13.6567 10.1589 13.71 9.99222 13.71C9.61222 13.71 9.42222 13.37 9.42222 12.69C9.42222 12.6233 9.42889 12.5367 9.44222 12.43C9.60222 12.3833 9.76889 12.36 9.94222 12.36C10.1222 12.36 10.2522 12.4133 10.3322 12.52Z" fill="currentColor"/>
<path d="M5.22909 15H6.89909V8.79H5.52909L4.50909 9.33V10.38H5.22909V15Z" fill="currentColor"/>
<path d="M12.8721 14.32C12.8721 14.0533 12.9421 13.8567 13.0821 13.73C13.2221 13.5967 13.4454 13.53 13.7521 13.53C14.0587 13.53 14.2821 13.5967 14.4221 13.73C14.5621 13.8567 14.6321 14.06 14.6321 14.34C14.6321 14.8533 14.3387 15.11 13.7521 15.11C13.1654 15.11 12.8721 14.8467 12.8721 14.32Z" fill="currentColor"/>
<path d="M12.8721 11.39C12.8721 11.1233 12.9421 10.9267 13.0821 10.8C13.2221 10.6667 13.4454 10.6 13.7521 10.6C14.0587 10.6 14.2821 10.6667 14.4221 10.8C14.5621 10.9267 14.6321 11.13 14.6321 11.41C14.6321 11.9233 14.3387 12.18 13.7521 12.18C13.1654 12.18 12.8721 11.9167 12.8721 11.39Z" fill="currentColor"/>
<path fill-rule="evenodd" clip-rule="evenodd" d="M15.201 10.75C15.201 12.0367 15.771 12.68 16.911 12.68C17.1577 12.68 17.4077 12.6467 17.661 12.58L17.681 12.63C17.581 13.0033 17.3844 13.2733 17.091 13.44C16.8044 13.6 16.3544 13.68 15.741 13.68L15.641 15.1C17.021 15.1 17.9944 14.79 18.561 14.17C19.1344 13.5433 19.421 12.5867 19.421 11.3C19.421 10.4 19.2477 9.74 18.901 9.32C18.561 8.9 18.0044 8.69 17.231 8.69C15.8777 8.69 15.201 9.37667 15.201 10.75ZM17.261 11.48C17.0744 11.48 16.941 11.4233 16.861 11.31C16.781 11.1967 16.741 11.0167 16.741 10.77C16.741 10.33 16.8944 10.11 17.201 10.11C17.4344 10.11 17.5877 10.1967 17.661 10.37C17.741 10.5367 17.781 10.7367 17.781 10.97C17.781 11.1967 17.7777 11.3367 17.771 11.39C17.6177 11.45 17.4477 11.48 17.261 11.48Z" fill="currentColor"/>
<path fill-rule="evenodd" clip-rule="evenodd" d="M1 5C1 3.89543 1.89543 3 3 3H21C22.1046 3 23 3.89543 23 5V19C23 20.1046 22.1046 21 21 21H3C1.89543 21 1 20.1046 1 19V5ZM3 5H21V19H3L3 5Z" fill="currentColor"/>
</svg>
