<svg width="24" height="24" viewBox="0 0 24 24" fill="none" xmlns="http://www.w3.org/2000/svg">
<path d="M6.00517 13.576C5.91451 13.3733 5.86917 13.0373 5.86917 12.568C5.86917 12.0933 5.91451 11.7547 6.00517 11.552C6.09584 11.344 6.25851 11.24 6.49317 11.24C6.65851 11.24 6.94917 11.3093 7.36517 11.448L7.58117 10.208C7.21317 10.0373 6.82651 9.952 6.42117 9.952C5.73317 9.952 5.23717 10.176 4.93317 10.624C4.62917 11.0667 4.47717 11.7093 4.47717 12.552C4.47717 13.3893 4.62117 14.0213 4.90917 14.448C5.20251 14.8693 5.66917 15.08 6.30917 15.08C6.73584 15.08 7.15984 15.0027 7.58117 14.848L7.37317 13.72C6.98384 13.8213 6.68251 13.872 6.46917 13.872C6.25584 13.872 6.10117 13.7733 6.00517 13.576Z" fill="currentColor"/>
<path fill-rule="evenodd" clip-rule="evenodd" d="M10.1504 15H11.4864L10.5744 10.032H8.54242L7.63042 15H8.90242L9.05442 14.216H9.99842L10.1504 15ZM9.56642 11.504L9.84642 13.28H9.23042L9.51042 11.504H9.56642Z" fill="currentColor"/>
<path fill-rule="evenodd" clip-rule="evenodd" d="M15.3028 11.608C15.3028 11.9067 15.2575 12.1547 15.1668 12.352C15.0761 12.5493 14.9348 12.728 14.7428 12.888L15.4068 15H13.9268L13.4308 13.208H13.2468V15H11.9028V10.032H13.7588C14.2921 10.032 14.6815 10.1573 14.9268 10.408C15.1775 10.6587 15.3028 11.0587 15.3028 11.608ZM13.4548 12.368C13.5935 12.368 13.6921 12.328 13.7508 12.248C13.8095 12.168 13.8388 12.024 13.8388 11.816C13.8388 11.6027 13.8095 11.456 13.7508 11.376C13.6921 11.2907 13.5961 11.248 13.4628 11.248H13.2468V12.368H13.4548Z" fill="currentColor"/>
<path fill-rule="evenodd" clip-rule="evenodd" d="M17.5039 15C18.8693 15 19.5519 14.136 19.5519 12.408C19.5519 11.64 19.3973 11.0533 19.0879 10.648C18.7839 10.2373 18.2666 10.032 17.5359 10.032H15.8559V15H17.5039ZM18.0239 13.552C17.9439 13.7493 17.7626 13.848 17.4799 13.848H17.2159V11.24H17.4559C17.7439 11.24 17.9306 11.3387 18.0159 11.536C18.1066 11.7333 18.1519 12.0693 18.1519 12.544C18.1519 13.0133 18.1093 13.3493 18.0239 13.552Z" fill="currentColor"/>
<path fill-rule="evenodd" clip-rule="evenodd" d="M1 5C1 3.89543 1.89543 3 3 3H21C22.1046 3 23 3.89543 23 5V19C23 20.1046 22.1046 21 21 21H3C1.89543 21 1 20.1046 1 19V5ZM3 5H21V19H3L3 5Z" fill="currentColor"/>
</svg>
