<svg width="24" height="24" viewBox="0 0 24 24" fill="none" xmlns="http://www.w3.org/2000/svg">
<path d="M17.8517 10.32C17.8517 9.23334 17.2251 8.69 15.9717 8.69C15.6117 8.69 15.2884 8.73 15.0017 8.81C14.7151 8.88334 14.3884 9.02 14.0217 9.22L14.4117 10.57C14.9717 10.3433 15.3617 10.23 15.5817 10.23C15.8951 10.23 16.0517 10.39 16.0517 10.71C16.0517 10.8767 16.0117 11.0033 15.9317 11.09C15.8584 11.17 15.7284 11.21 15.5417 11.21H14.9117V12.52H15.5317C15.9517 12.52 16.1617 12.7067 16.1617 13.08C16.1617 13.4267 16.0051 13.6 15.6917 13.6C15.4784 13.6 15.0951 13.5 14.5417 13.3L14.1917 14.7C14.5517 14.8533 14.8451 14.9567 15.0717 15.01C15.3051 15.07 15.5851 15.1 15.9117 15.1C16.5717 15.1 17.0751 14.9367 17.4217 14.61C17.7684 14.2767 17.9417 13.8067 17.9417 13.2C17.9417 12.8333 17.8751 12.5367 17.7417 12.31C17.6084 12.0767 17.3884 11.89 17.0817 11.75V11.71C17.3551 11.5367 17.5517 11.3433 17.6717 11.13C17.7917 10.9167 17.8517 10.6467 17.8517 10.32Z" fill="currentColor"/>
<path fill-rule="evenodd" clip-rule="evenodd" d="M10.8309 13.79H10.1309V15H8.46087V13.79H6.19087L6.02087 12.6L8.07087 8.79H10.1309V12.44H10.9009L10.8309 13.79ZM8.51087 12.44V10.91H8.45087L7.63087 12.44H8.51087Z" fill="currentColor"/>
<path d="M11.5927 14.32C11.5927 14.0533 11.6627 13.8567 11.8027 13.73C11.9427 13.5967 12.1661 13.53 12.4727 13.53C12.7794 13.53 13.0027 13.5967 13.1427 13.73C13.2827 13.8567 13.3527 14.06 13.3527 14.34C13.3527 14.8533 13.0594 15.11 12.4727 15.11C11.8861 15.11 11.5927 14.8467 11.5927 14.32Z" fill="currentColor"/>
<path d="M11.5927 11.39C11.5927 11.1233 11.6627 10.9267 11.8027 10.8C11.9427 10.6667 12.1661 10.6 12.4727 10.6C12.7794 10.6 13.0027 10.6667 13.1427 10.8C13.2827 10.9267 13.3527 11.13 13.3527 11.41C13.3527 11.9233 13.0594 12.18 12.4727 12.18C11.8861 12.18 11.5927 11.9167 11.5927 11.39Z" fill="currentColor"/>
<path fill-rule="evenodd" clip-rule="evenodd" d="M1 5C1 3.89543 1.89543 3 3 3H21C22.1046 3 23 3.89543 23 5V19C23 20.1046 22.1046 21 21 21H3C1.89543 21 1 20.1046 1 19V5ZM3 5H21V19H3L3 5Z" fill="currentColor"/>
</svg>
