<svg width="24" height="24" viewBox="0 0 24 24" fill="none" xmlns="http://www.w3.org/2000/svg">
<path d="M9.88744 15H8.21744V10.38H7.49744V9.32999L8.51744 8.78999H9.88744V15Z" fill="currentColor"/>
<path d="M11.2706 14.32C11.2706 14.0533 11.3406 13.8567 11.4806 13.73C11.6206 13.5967 11.8439 13.53 12.1506 13.53C12.4572 13.53 12.6806 13.5967 12.8206 13.73C12.9606 13.8567 13.0306 14.06 13.0306 14.34C13.0306 14.8533 12.7372 15.11 12.1506 15.11C11.5639 15.11 11.2706 14.8467 11.2706 14.32Z" fill="currentColor"/>
<path d="M11.2706 11.39C11.2706 11.1233 11.3406 10.9267 11.4806 10.8C11.6206 10.6667 11.8439 10.6 12.1506 10.6C12.4572 10.6 12.6806 10.6667 12.8206 10.8C12.9606 10.9267 13.0306 11.13 13.0306 11.41C13.0306 11.9233 12.7372 12.18 12.1506 12.18C11.5639 12.18 11.2706 11.9167 11.2706 11.39Z" fill="currentColor"/>
<path d="M14.3795 15H16.0495V8.78999H14.6795L13.6595 9.32999V10.38H14.3795V15Z" fill="currentColor"/>
<path fill-rule="evenodd" clip-rule="evenodd" d="M1 5C1 3.89543 1.89543 3 3 3H21C22.1046 3 23 3.89543 23 5V19C23 20.1046 22.1046 21 21 21H3C1.89543 21 1 20.1046 1 19V5ZM3 5H21V19H3L3 5Z" fill="currentColor"/>
</svg>
