<svg width="1em" height="1em" viewBox="0 0 35 35" xmlns="http://www.w3.org/2000/svg">
<circle cx="17.5" cy="17.5" r="17.5" fill="#E0E0E0"/>
<path d="m17.232 4.117c-0.0756-0.28926-0.4863-0.28926-0.562 0l-0.8426 3.2219c-1e-4 3.7e-4 -2e-4 7.5e-4 -3e-4 0.00112l-1.2709 4.8593c-0.1636 0.6255-0.8064 0.997-1.43 0.8267-4e-4 -1e-4 -9e-4 -2e-4 -0.0013-3e-4l-8.0565-2.2105c-0.28834-0.0792-0.49366 0.2765-0.28098 0.4866l5.9425 5.8718 0.0011 0.0011c0.4592 0.4549 0.4588 1.1973-0.0011 1.6517l-3.5728 3.5303c-2.4e-4 2e-4 -4.8e-4 5e-4 -7.2e-4 7e-4l-2.369 2.3408c-0.21268 0.2102-0.00736 0.5658 0.28098 0.4867l3.2118-0.8813c3.1e-4 0 6.2e-4 -1e-4 9.3e-4 -2e-4l4.8438-1.329 0.0012-3e-4c0.6234-0.1704 1.2662 0.2009 1.43 0.8262 0 2e-4 1e-4 3e-4 1e-4 5e-4l1.2709 4.8593c0 1e-4 1e-4 3e-4 1e-4 5e-4l0.8428 3.2225c0.0757 0.2892 0.4864 0.2892 0.562 0l0.8428-3.2225c1e-4 -2e-4 1e-4 -4e-4 2e-4 -5e-4l1.2709-4.8593c0.1636-0.6256 0.8065-0.9972 1.4301-0.8267l0.0012 3e-4 8.0564 2.2105c0.2883 0.0791 0.4937-0.2765 0.281-0.4867l-2.3676-2.3394-0.0021-0.0021-3.5729-3.5303c-3e-4 -4e-4 -7e-4 -7e-4 -0.0011-0.0011-0.4588-0.4545-0.4588-1.196 0-1.6506 4e-4 -3e-4 8e-4 -7e-4 0.0011-0.0011l5.9426-5.8718c0.2127-0.2101 0.0073-0.5658-0.281-0.4866l-3.2112 0.881c-5e-4 2e-4 -1e-3 3e-4 -0.0015 5e-4l-4.8437 1.329c-0.6239 0.1712-1.2675-0.2003-1.4313-0.8262v0l-2.1139-8.0825z"/>
</svg>
