<svg width="1em" height="1em" viewBox="0 0 35 35" xmlns="http://www.w3.org/2000/svg">
<circle cx="17.5" cy="17.5" r="17.5" fill="#3D5669"/>
<path d="m17 17.289c3.3137 0 6-3.0893 6-6.9 0-1.5545-0.447-2.9889-1.2012-4.1426-0.0829-0.12674 0.0459-0.29338 0.185-0.23343 4.4801 1.9314 7.6162 6.3874 7.6162 11.576 0 6.9587-5.6412 12.6-12.6 12.6s-12.6-5.6413-12.6-12.6c0-5.1886 3.1361-9.6446 7.6162-11.576 0.1391-0.05995 0.2679 0.10669 0.185 0.23343-0.7542 1.1536-1.2012 2.5881-1.2012 4.1426 0 3.8107 2.6863 6.9 6 6.9z"/>
</svg>