<svg width="1em" height="1em" viewBox="0 0 35 35" xmlns="http://www.w3.org/2000/svg">
<circle cx="17.5" cy="17.5" r="17.5" fill="#E14C89"/>
<path d="m17.151 21.995s-0.5637-5.3159-2.5743-7.8392c-1.47-1.845-4.8457-3.6181-4.8457-3.6181s3.5079 0.4401 5.1486-0.75379c1.4746-1.073 2.2714-4.0704 2.2714-4.0704s0.5862 2.9666 1.9686 4.0704c1.6311 1.3023 5.3001 0.75379 5.3001 0.75379s-3.3908 1.7613-4.8458 3.6181c-1.9789 2.5255-2.4229 7.8392-2.4229 7.8392z"/>
<path d="m4.1285 14.156c-0.74297 2.7982-1e-5 6.1809 0.60572 7.3869s2.569 4.3814 5.1486 6.1809c2.1944 1.5308 6.3601 2.5628 6.3601 2.5628s-0.0374-3.9271-1.3629-5.8794c-0.9627-1.4178-3.3315-2.8643-3.3315-2.8643s-2.7033-1.1462-3.7857-2.5628c-1.3634-1.7843-1.3919-3.3363-1.3629-5.5779 0.0242-1.8709 1.06-4.6734 1.06-4.6734s-2.6939 3.0258-3.3315 5.4272z"/>
<path d="m29.872 14.156c0.7429 2.7982 0 6.1809-0.6058 7.3869-0.6057 1.206-2.569 4.3814-5.1486 6.1809-2.1944 1.5308-6.36 2.5628-6.36 2.5628s0.0373-3.9271 1.3628-5.8794c0.9627-1.4178 3.3315-2.8643 3.3315-2.8643s2.7033-1.1462 3.7857-2.5628c1.3634-1.7843 1.3919-3.3363 1.3629-5.5779-0.0242-1.8709-1.06-4.6734-1.06-4.6734s2.6939 3.0258 3.3315 5.4272z"/>
</svg>
