<svg width="1em" height="1em" viewBox="0 0 35 35" xmlns="http://www.w3.org/2000/svg">
<circle cx="17.5" cy="17.5" r="17.5" fill="#B9433F"/>
<path d="m16.4 7.8c0-0.33137-0.2687-0.6-0.6-0.6h-3c-0.3314 0-0.6 0.26863-0.6 0.6v8.1c0 0.3314 0.2686 0.6 0.6 0.6h3c0.3313 0 0.6-0.2686 0.6-0.6v-8.1z"/>
<path d="m11.3 9c0-0.33137-0.2687-0.6-0.6-0.6h-3c-0.33138 0-0.6 0.26863-0.6 0.6v6.9c0 0.3314 0.26862 0.6 0.6 0.6h3c0.3313 0 0.6-0.2686 0.6-0.6v-6.9z"/>
<path d="m7.7 17.4c-0.33138 0-0.6 0.2686-0.6 0.6v7.2c0 0.3314 0.26862 0.6 0.6 0.6h5.1c0.3313 0 0.6-0.2686 0.6-0.6v-3c0-0.3314 0.2686-0.6 0.6-0.6h3c0.3313 0 0.6-0.2686 0.6-0.6v-3c0-0.3314-0.2687-0.6-0.6-0.6h-9.3z"/>
<path d="m21.5 26.4c0-0.3314 0.2686-0.6 0.6-0.6h4.2c0.3313 0 0.6-0.2686 0.6-0.6v-7.2c0-0.3314-0.2687-0.6-0.6-0.6h-6.9c-0.3314 0-0.6 0.2686-0.6 0.6v4.2c0 0.3314-0.2687 0.6-0.6 0.6h-3c-0.3314 0-0.6 0.2686-0.6 0.6v3c0 0.3314-0.2687 0.6-0.6 0.6h-0.9c-0.3314 0-0.6 0.2686-0.6 0.6v0.6c0 0.3314 0.2686 0.6 0.6 0.6h7.8c0.3313 0 0.6-0.2686 0.6-0.6v-1.8z"/>
<path d="m17.3 7.8c0-0.33137 0.2686-0.6 0.6-0.6h3c0.3313 0 0.6 0.26863 0.6 0.6v8.1c0 0.3314-0.2687 0.6-0.6 0.6h-3c-0.3314 0-0.6-0.2686-0.6-0.6v-8.1z"/>
<path d="m26.6 9c0-0.33137-0.2687-0.6-0.6-0.6h-3c-0.3314 0-0.6 0.26863-0.6 0.6v6.9c0 0.3314 0.2686 0.6 0.6 0.6h3c0.3313 0 0.6-0.2686 0.6-0.6v-6.9z"/>
</svg>
