<svg width="1em" height="1em" viewBox="0 0 35 35" xmlns="http://www.w3.org/2000/svg">
<circle cx="17.5" cy="17.5" r="17.5" fill="#DA3D38"/>
<path d="m19.67 30.603c1.6632-0.3883 3.5027-0.9926 4.7633-1.9125 2.7232-1.9871 4.7297-6.895 5.1627-8.0184 0.0227-0.0589-0.0497-0.1063-0.0968-0.0643-0.5717 0.51-2.3598 2.0317-3.7159 2.3827-1.0214 0.2644-2.381-0.0046-2.8406-0.1109-0.0545-0.0126-0.0628-0.0853-0.0126-0.1102 0.5858-0.2901 2.7646-1.4334 3.6032-2.7789 1.1219-1.8001 0.8493-5.0839 0.7684-5.8413-0.0059-0.0552-0.077-0.0712-0.1085-0.0253-0.3191 0.4653-1.432 2.0259-2.4599 2.7166-1.2188 0.819-3.5551 0.8927-3.9821 0.8994-0.0361 5e-4 -0.0643-0.0288-0.0601-0.0647 0.0563-0.4827 0.3872-3.5329-0.0078-5.4847-0.3346-1.6531-0.5796-2.6366-1.5-4.05-0.9375-1.4396-3.0746-2.9092-3.7152-3.3306-0.0511-0.03359-0.1146 0.02237-0.0886 0.0777 0.226 0.48172 0.7639 1.7455 0.6538 2.6529-0.1077 0.8866-0.4663 1.3822-0.9425 2.0403-0.0826 0.11406-0.1686 0.23299-0.2575 0.35969-0.5394 0.76859-1.2355 1.1333-1.9209 1.4923-0.7437 0.3896-1.4747 0.7725-1.9791 1.6577-1.0168 1.7844-0.5724 5.0698-0.4693 5.7319 0.0076 0.0492-0.044 0.0844-0.0875 0.0603-0.3738-0.2069-1.6284-0.9412-2.1432-1.7422-0.90238-1.4041-0.18775-4.0344 0.06807-4.8514 0.01906-0.0609-0.05671-0.1077-0.10082-0.0616-0.58361 0.61-2.3894 2.6017-2.8172 4.313-0.3694 1.4776-0.36465 2.4213 0 3.9 0.38147 1.547 2.2423 3.5671 2.7318 4.0784 0.03923 0.041 0.0051 0.1076-0.0511 0.0999-0.36255-0.0499-1.2262-0.1874-1.7807-0.4283-0.79747-0.3463-1.7058-1.232-2.0776-1.6169-0.04391-0.0454-0.12102-3e-3 -0.10304 0.0576 0.21852 0.7365 0.93497 2.9864 1.8807 4.2593 1.715 2.3084 3.3607 3.3501 6.15 4.05 1.3564 0.3404 3.5613 0.3007 3.5995 0.3 0.0012 0-5e-4 1e-4 7e-4 0 0.0144-0.0012 0.8445-0.0678 2.0263-0.2611-1.1525 0.1079-2.5991 0.0842-3.661-0.1747-1.3722-0.3345-3.5188-1.2811-3.3-3 0.053-0.4164 0.3613-0.6235 0.6713-0.8317 0.3051-0.2049 0.6117-0.4109 0.6787-0.8183 0.0765-0.4661 0.0891-0.7928-0.15-1.2-0.2025-0.3448-0.7403-0.5833-1.0221-0.6888-0.0547-0.0205-0.0542-0.0997 0.0022-0.1153 0.2997-0.0826 0.9085-0.2184 1.3199-0.0959 0.4829 0.1438 0.7407 0.3521 1.05 0.75 0.2115 0.2721 0.3648 0.7505 0.4236 0.954 0.0125 0.0435 0.0664 0.0589 0.0987 0.0272 0.1333-0.1303 0.4144-0.4236 0.5277-0.6812 0.2357-0.5363 0.2424-0.9667 0-1.5-0.1152-0.2534-0.2911-0.3797-0.4753-0.5121-0.1449-0.104-0.295-0.2118-0.4247-0.3879-0.9608-1.3039 0.678-2.9789 1.8-3.6 0.6072-0.3362 1.5174-0.3239 1.8354-0.3077 0.0484 0.0025 0.0723 0.0589 0.0423 0.0969-0.1966 0.2489-0.7326 0.9713-0.8277 1.5608-0.056 0.347-0.0737 0.5563 0 0.9 0.0975 0.4551 0.455 0.6488 0.8176 0.8454 0.3473 0.1882 0.6994 0.3791 0.8324 0.8046 0.1305 0.4176 0.066 1.0481 0.0251 1.3406-0.0078 0.055 0.0579 0.0937 0.1018 0.0596 0.2032-0.1578 0.6103-0.4658 0.9231-0.6502 0.7042-0.4154 1.8592-0.7527 2.2587-0.8623 0.0518-0.0142 0.0936 0.0416 0.0662 0.0878-0.1472 0.2478-0.4765 0.8119-0.6749 1.2245-0.0552 0.1147-0.1091 0.2136-0.1597 0.3067-0.127 0.2332-0.2338 0.4295-0.2903 0.7433-0.0623 0.3459-0.088 0.5597 0 0.9 0.0687 0.2657 0.2233 0.4174 0.3834 0.5746 0.1339 0.1313 0.2717 0.2665 0.3666 0.4754 0.2234 0.4917 0.3555 0.8128 0.3 1.35-0.0382 0.3685-0.1162 0.5783-0.3 0.9-0.2466 0.4315-0.4898 0.6193-0.9 0.9-0.1484 0.1015-0.2899 0.1826-0.4288 0.2483z"/>
</svg>
