<svg width="1em" height="1em" viewBox="0 0 35 35" xmlns="http://www.w3.org/2000/svg">
<circle cx="17.5" cy="17.5" r="17.5" fill="#388545"/>
<path d="m12.898 30.552c0 0.028 0.0194 0.0523 0.0467 0.0585l3.18 0.7227c0.0376 0.0086 0.0733-0.02 0.0733-0.0585v-3.6145c0-0.0333 0.0261-0.0602 0.0593-0.0604 0.5576-0.0021 4.9151-0.0557 7.4407-1.1999 1.3179-0.5971 2.1535-0.9012 3.15-1.95 1.0112-1.0642 1.4875-1.8657 1.8-3.3 0.3512-1.6118-0.0641-2.5962-0.45-4.2-0.4122-1.7134-0.9032-2.6038-1.65-4.2-1.4867-3.1776-4.7587-7.5022-5.0752-7.9176-0.0161-0.02109-0.038-0.02735-0.0628-0.01783-0.4898 0.18847-5.5986 2.1758-8.512 4.1854-1.7472 1.2053-2.7937 1.8601-4.2 3.45-1.4645 1.6558-2.4409 2.6613-3 4.8-0.47413 1.8136-0.58342 3.0186 0 4.8 0.68631 2.0955 1.7138 3.2078 3.6 4.35 1.1607 0.7029 3.2142 1.1247 3.5523 1.1908 0.0284 0.0056 0.0477 0.0302 0.0477 0.0591v2.9022zm3.2489-17.537c0.0281 0.019 0.0664 0.0112 0.0848-0.0173l2.6872-4.1651c0.0386-0.05985 0.1307-0.01453 0.1069 0.05259l-1.4365 4.0483c-0.0167 0.0472 0.0272 0.0939 0.075 0.0788 0.4697-0.1484 2.2602-0.6796 3.4837-0.5624 0.6124 0.0586 1.4259 0.3125 1.8882 0.4706 0.0648 0.0222 0.0463 0.1172-0.0221 0.1156-0.5801-0.0138-1.6939-0.0122-2.4661 0.1638-1.5298 0.3486-3.5397 1.7965-3.7346 1.9387-0.0109 8e-3 -0.0173 0.0184-0.0209 0.0314l-0.4131 1.5149c-0.013 0.0475 0.0339 0.09 0.0801 0.0729 0.5058-0.1873 2.6224-0.9326 4.0885-0.8579 1.3636 0.0695 3.1665 0.8994 3.9538 1.294 0.0626 0.0314 0.0277 0.1238-0.0409 0.1095-0.8238-0.1713-2.6381-0.4977-3.9129-0.3535-1.1436 0.1293-1.8248 0.2269-2.85 0.75-0.8689 0.4434-1.9494 1.5007-2.0856 1.6357-0.0095 0.0094-0.0153 0.0214-0.0169 0.0346l-0.2856 2.2849c-0.0055 0.0439 0.0352 0.0792 0.0772 0.0655 0.4817-0.1558 2.8112-0.8813 4.4109-0.8707 1.2579 0.0083 2.9787 0.4778 3.8297 0.7352 0.0686 0.0208 0.0487 0.121-0.0227 0.1153-0.9167-0.0734-2.7986-0.1792-4.107 0.0495-1.7393 0.304-4.2014 1.5027-4.475 1.6376-0.0165 0.0081-0.0272 0.0229-0.0309 0.0409l-0.8343 4.0327c-0.0133 0.064-0.1048 0.0637-0.1176-4e-4l-0.839-4.1948c-0.0021-0.0105-0.0061-0.0193-0.0133-0.0272-0.1242-0.1373-1.3668-1.4971-2.3899-2.0888-0.86017-0.4975-2.2519-0.8491-2.8553-0.9863-0.06406-0.0146-0.06249-0.1057 0.00234-0.1163 0.59039-0.0967 1.9336-0.2771 2.8529-0.0974 0.9835 0.1922 2.2952 0.9557 2.6232 1.1532 0.0369 0.0221 0.0843-3e-4 0.091-0.0428l0.4316-2.7335c0.0027-0.0171-0.0015-0.0338-0.0127-0.047-0.1392-0.1637-1.1095-1.2874-1.9331-1.7799-0.7497-0.4483-1.9736-0.7297-2.542-0.8429-0.06486-0.0129-0.06612-0.1052-0.00102-0.1169 0.59697-0.1072 1.9352-0.3019 2.843-0.0902 0.8851 0.2064 2.0402 0.9574 2.3312 1.1531 0.0342 0.023 0.0806 0.0057 0.0919-0.0339l0.5693-1.9924c0.0048-0.017 0.0023-0.0347-0.0077-0.0493-0.1082-0.1585-0.7708-1.115-1.3347-1.6275-0.4563-0.4147-1.2052-0.8632-1.5767-1.0753-0.0551-0.0315-0.0311-0.1155 0.0322-0.1115 0.4212 0.0266 1.2715 0.1006 1.8445 0.2868 0.7186 0.2334 1.6699 0.8603 1.8989 1.0151z" clip-rule="evenodd" fill-rule="evenodd"/>
</svg>
