<svg width="1em" height="1em" viewBox="0 0 35 35" xmlns="http://www.w3.org/2000/svg">
<circle cx="17.5" cy="17.5" r="17.5" fill="#827D79"/>
<path d="m7.7334 13.69 2.175-3.7672 3.8329-0.03875-1.0486-2.6838-4.1677 0.01866-3.825 6.6251 1.9927 3.7485 2.7736-0.3039-1.7329-3.5986z"/>
<path d="m11.075 12.45h11.85l-5.85 10.35-6-10.35z"/>
<path d="m14.675 25.95h4.35l2.25-3.3 1.65 2.25-2.25 3.6h-7.65l-2.1-3.6 1.8-2.25 1.95 3.3z"/>
<path d="m24.208 9.9226 2.175 3.7672-1.7329 3.5986 2.7736 0.3039 1.9927-3.7485-3.825-6.6251-4.1677-0.01866-1.0486 2.6838 3.8329 0.03875z"/>
</svg>
