<svg viewBox="0 0 35 35" fill="none" xmlns="http://www.w3.org/2000/svg">
<circle cx="17.5" cy="17.5" r="17.5" fill="#827D79"/>
<path d="M7.73338 13.6898L9.90838 9.92261L13.7413 9.88386L12.6927 7.20001L8.52501 7.21867L4.70001 13.8438L6.6927 17.5923L9.46626 17.2884L7.73338 13.6898Z" fill="black"/>
<path d="M11.075 12.45H22.925L17.075 22.8L11.075 12.45Z" fill="black"/>
<path d="M14.675 25.95H19.025L21.275 22.65L22.925 24.9L20.675 28.5H13.025L10.925 24.9L12.725 22.65L14.675 25.95Z" fill="black"/>
<path d="M24.2079 9.92261L26.3829 13.6898L24.65 17.2884L27.4236 17.5923L29.4163 13.8438L25.5913 7.21867L21.4236 7.20001L20.375 9.88386L24.2079 9.92261Z" fill="black"/>
</svg>
