<svg width="1em" height="1em" viewBox="0 0 35 35" xmlns="http://www.w3.org/2000/svg">
<circle cx="17.5" cy="17.5" r="17.5" fill="#9F4EA4"/>
<path d="m30.5 17.888c0.0948 4.7184-5.9562 9.8136-13.65 10.05-5.7-0.3-12.159-4.917-13.65-10.05 2.3706-5.9846 8.8708-10.555 13.65-10.05 5.6693-0.32508 11.943 4.2027 13.65 10.05zm-2.7005 0.0139c0.0558 3.4123-4.7065 6.6306-10.65 7.3361-4.5459-0.3499-9.4864-3.5892-10.65-7.3361 1.7774-4.1981 6.5303-7.4431 10.208-7.3624-3.6622 0.0757-6.6076 3.0681-6.6076 6.7485 0 3.7279 3.0221 6.75 6.75 6.75s6.75-3.0221 6.75-6.75c0-3.5554-2.7488-6.4688-6.2371-6.7308 4.3661-0.1224 9.126 3.1449 10.437 7.3447zm-12.9-0.1639c1.1598 0 2.1-0.9402 2.1-2.1 0-0.6924-0.335-1.3065-0.8518-1.689 0.2717-0.0724 0.5573-0.111 0.8518-0.111 1.8226 0 3.3 1.4774 3.3 3.3 0 1.8225-1.4774 3.3-3.3 3.3-1.7456 0-3.1746-1.3553-3.2922-3.071 0.3387 0.234 0.7495 0.371 1.1922 0.371z" clip-rule="evenodd" fill-rule="evenodd"/>
</svg>
