<svg width="1em" height="1em" viewBox="0 0 35 35" xmlns="http://www.w3.org/2000/svg">
<circle cx="17.5" cy="17.5" r="17.5" fill="#3F9DC7"/>
<path d="m13.386 28.016c5.1333 2.1981 10.563 1.017 12.128-2.6381 1.0536-2.4606 0.0872-5.415-2.223-7.7539 0 0-0.5207-0.3996-1.1003-0.9852-0.5764-0.5824-1.211-1.3488-1.4497-2.0891-0.3955-1.2265-0.4437-2.09 0-3.3 0.5418-1.4778 1.5361-1.9832 2.85-2.85 1.3166-0.86855 3.75-1.5 3.75-1.5s-3.7781 0.15584-6.15 0.6c-2.5151 0.47097-6.3 1.8-6.3 1.8s-3.9365 1.5368-5.7 3.45c-0.91399 0.9916-1.4239 1.6083-1.95 2.85-0.49118 1.1594-0.68732 3.15-0.68732 3.15-0.48093 3.4064 2.3036 7.3273 6.8318 9.2663zm0.7191-0.9714c1.9255 0.8036 3.7453 0.8347 4.0648 0.0693 0.3194-0.7653-0.9825-2.0372-2.9079-2.8409-1.9255-0.8037-3.7453-0.8347-4.0648-0.0694-0.3194 0.7654 0.9825 2.0373 2.9079 2.841z" clip-rule="evenodd" fill-rule="evenodd"/>
</svg>
