<svg width="107" height="48" viewBox="0 0 107 48" fill="none" xmlns="http://www.w3.org/2000/svg">
<g clip-path="url(#clip0_92_2042)">
<path d="M8.33419 18.8559V21.2696H5.7559V28.5656H2.71132V21.2696H0.160461V18.8559H8.33419ZM10.1885 23.697C10.1885 22.737 10.3805 21.8822 10.7645 21.1325C11.1577 20.3828 11.7154 19.8022 12.4376 19.3907C13.1599 18.9702 14.0102 18.7599 14.9885 18.7599C15.8296 18.7599 16.5793 18.9199 17.2376 19.2399C17.9051 19.5507 18.4445 19.9942 18.8559 20.5702C19.2765 21.1462 19.5553 21.8182 19.6925 22.5862H16.4833C16.3371 22.2662 16.1268 22.0193 15.8525 21.8456C15.5874 21.6627 15.2811 21.5713 14.9336 21.5713C14.4217 21.5713 14.0148 21.7633 13.7131 22.1473C13.4205 22.5313 13.2742 23.0479 13.2742 23.697C13.2742 24.3462 13.4205 24.8627 13.7131 25.2467C14.0148 25.6307 14.4217 25.8227 14.9336 25.8227C15.2811 25.8227 15.5874 25.7359 15.8525 25.5622C16.1268 25.3793 16.3371 25.1279 16.4833 24.8079H19.6925C19.5553 25.5759 19.2765 26.2479 18.8559 26.8239C18.4445 27.3999 17.9051 27.8479 17.2376 28.1679C16.5793 28.4787 15.8296 28.6342 14.9885 28.6342C14.0102 28.6342 13.1599 28.4285 12.4376 28.017C11.7154 27.5965 11.1577 27.0113 10.7645 26.2616C10.3805 25.5119 10.1885 24.657 10.1885 23.697ZM28.0435 22.1747C27.9247 21.9827 27.7555 21.8365 27.5361 21.7359C27.3167 21.6262 27.0515 21.5713 26.7407 21.5713C26.1555 21.5713 25.7029 21.7633 25.383 22.1473C25.063 22.5222 24.903 23.0387 24.903 23.697C24.903 24.4559 25.0813 25.0227 25.4378 25.3976C25.7944 25.7725 26.343 25.9599 27.0835 25.9599C27.7875 25.9599 28.3544 25.6765 28.7841 25.1096H26.3567V22.9565H31.3075V26.001C30.8869 26.7233 30.3064 27.345 29.5658 27.8662C28.8253 28.3782 27.8881 28.6342 26.7544 28.6342C25.7487 28.6342 24.871 28.4285 24.1213 28.017C23.3807 27.5965 22.8092 27.0113 22.407 26.2616C22.0138 25.5119 21.8173 24.657 21.8173 23.697C21.8173 22.737 22.0138 21.8822 22.407 21.1325C22.8092 20.3828 23.3807 19.8022 24.1213 19.3907C24.8618 18.9702 25.7304 18.7599 26.727 18.7599C27.9978 18.7599 29.031 19.0662 29.8264 19.6787C30.631 20.2913 31.1064 21.1233 31.2527 22.1747H28.0435Z" fill="#FFCB04"/>
<path d="M45.3776 18.8558V28.5655H42.3469V23.7244L40.8521 28.5655H38.2463L36.7515 23.7244V28.5655H33.7069V18.8558H37.4372L39.5766 24.6844L41.6612 18.8558H45.3776ZM47.643 24.6981C47.643 23.8844 47.7802 23.1804 48.0545 22.5861C48.3377 21.9827 48.7217 21.5255 49.2065 21.2147C49.6912 20.8947 50.235 20.7347 50.8385 20.7347C51.3412 20.7347 51.7757 20.8398 52.1413 21.0501C52.5069 21.2512 52.7859 21.5301 52.9779 21.8867V20.8307H56.0087V28.5655H52.9779V27.5096C52.7859 27.8661 52.5069 28.1495 52.1413 28.3598C51.7757 28.561 51.3412 28.6615 50.8385 28.6615C50.235 28.6615 49.6912 28.5061 49.2065 28.1953C48.7217 27.8752 48.3377 27.4181 48.0545 26.8238C47.7802 26.2204 47.643 25.5118 47.643 24.6981ZM52.9779 24.6981C52.9779 24.2867 52.8729 23.9667 52.6625 23.7381C52.452 23.5096 52.1825 23.3953 51.8533 23.3953C51.5242 23.3953 51.2546 23.5096 51.0442 23.7381C50.8337 23.9667 50.7287 24.2867 50.7287 24.6981C50.7287 25.1095 50.8337 25.4296 51.0442 25.6581C51.2546 25.8867 51.5242 26.001 51.8533 26.001C52.1825 26.001 52.452 25.8867 52.6625 25.6581C52.8729 25.4296 52.9779 25.1095 52.9779 24.6981ZM64.0959 20.7758C64.9826 20.7758 65.673 21.073 66.1667 21.6673C66.6695 22.2616 66.921 23.0661 66.921 24.081V28.5655H63.8902V24.465C63.8902 24.0993 63.7895 23.8113 63.5885 23.601C63.3965 23.3815 63.1359 23.2718 62.8067 23.2718C62.4686 23.2718 62.2033 23.3815 62.0113 23.601C61.8193 23.8113 61.7233 24.0993 61.7233 24.465V28.5655H58.6787V20.8307H61.7233V22.0101C61.9612 21.6444 62.2766 21.3472 62.6696 21.1187C63.072 20.8901 63.5473 20.7758 64.0959 20.7758ZM69.1325 24.6981C69.1325 23.8844 69.2696 23.1804 69.5439 22.5861C69.8276 21.9827 70.2116 21.5255 70.6959 21.2147C71.1806 20.8947 71.7245 20.7347 72.3279 20.7347C72.831 20.7347 73.2652 20.8398 73.6307 21.0501C73.9967 21.2512 74.2753 21.5301 74.4673 21.8867V20.8307H77.4982V28.5655H74.4673V27.5096C74.2753 27.8661 73.9967 28.1495 73.6307 28.3598C73.2652 28.561 72.831 28.6615 72.3279 28.6615C71.7245 28.6615 71.1806 28.5061 70.6959 28.1953C70.2116 27.8752 69.8276 27.4181 69.5439 26.8238C69.2696 26.2204 69.1325 25.5118 69.1325 24.6981ZM74.4673 24.6981C74.4673 24.2867 74.3623 23.9667 74.1519 23.7381C73.9419 23.5096 73.6719 23.3953 73.3427 23.3953C73.0136 23.3953 72.744 23.5096 72.5336 23.7381C72.3236 23.9667 72.2182 24.2867 72.2182 24.6981C72.2182 25.1095 72.3236 25.4296 72.5336 25.6581C72.744 25.8867 73.0136 26.001 73.3427 26.001C73.6719 26.001 73.9419 25.8867 74.1519 25.6581C74.3623 25.4296 74.4673 25.1095 74.4673 24.6981ZM82.9522 20.7347C83.4553 20.7347 83.8895 20.8398 84.255 21.0501C84.621 21.2512 84.8996 21.5301 85.0916 21.8867V20.8307H88.1225V28.4284C88.1225 29.1507 87.99 29.809 87.7247 30.4033C87.4599 30.9976 87.03 31.473 86.4356 31.8295C85.8506 32.1861 85.0963 32.3644 84.1727 32.3644C82.9295 32.3644 81.942 32.0718 81.2105 31.4867C80.4883 30.9107 80.0769 30.1244 79.9762 29.1278H82.9659C83.0482 29.5301 83.3773 29.7313 83.9533 29.7313C84.3099 29.7313 84.5889 29.6398 84.7899 29.457C84.9913 29.2741 85.0916 28.9312 85.0916 28.4284V27.5096C84.8996 27.8661 84.621 28.1495 84.255 28.3598C83.8895 28.561 83.4553 28.6615 82.9522 28.6615C82.3487 28.6615 81.8049 28.5061 81.3202 28.1953C80.8359 27.8752 80.4519 27.4181 80.1682 26.8238C79.8939 26.2204 79.7567 25.5118 79.7567 24.6981C79.7567 23.8844 79.8939 23.1804 80.1682 22.5861C80.4519 21.9827 80.8359 21.5255 81.3202 21.2147C81.8049 20.8947 82.3487 20.7347 82.9522 20.7347ZM85.0916 24.6981C85.0916 24.2867 84.9866 23.9667 84.7762 23.7381C84.5662 23.5096 84.2962 23.3953 83.967 23.3953C83.6379 23.3953 83.3683 23.5096 83.1579 23.7381C82.9479 23.9667 82.8425 24.2867 82.8425 24.6981C82.8425 25.1095 82.9479 25.4296 83.1579 25.6581C83.3683 25.8867 83.6379 26.001 83.967 26.001C84.2962 26.001 84.5662 25.8867 84.7762 25.6581C84.9866 25.4296 85.0916 25.1095 85.0916 24.6981ZM98.2805 24.6295C98.2805 24.8398 98.2667 25.041 98.2393 25.233H93.3433C93.3892 25.9004 93.6682 26.2341 94.1799 26.2341C94.509 26.2341 94.7469 26.0833 94.893 25.7815H98.1159C98.0062 26.3301 97.773 26.8238 97.4165 27.2627C97.0693 27.6924 96.6257 28.0353 96.0862 28.2913C95.556 28.5381 94.971 28.6615 94.3307 28.6615C93.5627 28.6615 92.877 28.5016 92.2736 28.1816C91.6796 27.8615 91.2133 27.4044 90.8747 26.8101C90.5456 26.2067 90.381 25.5027 90.381 24.6981C90.381 23.8936 90.5456 23.1941 90.8747 22.5998C91.2133 21.9964 91.6796 21.5347 92.2736 21.2147C92.877 20.8947 93.5627 20.7347 94.3307 20.7347C95.0987 20.7347 95.7802 20.8947 96.3742 21.2147C96.9776 21.5255 97.4439 21.9736 97.773 22.5587C98.1116 23.1438 98.2805 23.8341 98.2805 24.6295ZM95.1947 23.9027C95.1947 23.6467 95.1125 23.4547 94.9479 23.3267C94.7833 23.1895 94.5776 23.121 94.3307 23.121C93.7916 23.121 93.4762 23.3815 93.3845 23.9027H95.1947ZM103.591 22.257C103.902 21.809 104.281 21.4524 104.729 21.1873C105.177 20.913 105.643 20.7758 106.128 20.7758V24.0261H105.264C104.688 24.0261 104.263 24.1267 103.989 24.3278C103.723 24.529 103.591 24.8855 103.591 25.3975V28.5655H100.546V20.8307H103.591V22.257Z" fill="url(#paint0_linear_92_2042)"/>
<path fill-rule="evenodd" clip-rule="evenodd" d="M46.5759 0.0882575C45.2044 -0.279307 43.7944 0.534763 43.4267 1.90653L40.3026 13.5656H71.361L72.4046 9.6711C72.7719 8.29933 71.958 6.88933 70.5862 6.52174L46.5759 0.0882575ZM65.8487 34.137H34.7906L33.6655 38.3357C33.298 39.7075 34.112 41.1175 35.4838 41.4851L59.4939 47.9186C60.8657 48.2863 62.2757 47.472 62.6434 46.1001L65.8487 34.137Z" fill="white"/>
<path d="M48.3373 3.42663L47.4772 3.63187C47.3662 3.45965 47.1935 3.32659 46.98 3.26946C46.524 3.14717 46.0543 3.41898 45.9317 3.87656C45.9202 3.9198 45.912 3.96315 45.9073 4.00631L45.0467 4.21161C45.0352 4.02887 45.0523 3.84107 45.1025 3.65432C45.348 2.73744 46.2887 2.19281 47.2029 2.43784C47.7335 2.57996 48.1385 2.95651 48.3373 3.42663Z" fill="#CD3B3B"/>
<path d="M47.5847 4.31935C47.4617 4.77693 46.9924 5.04873 46.536 4.92646C46.3217 4.86895 46.1481 4.73455 46.0371 4.56067L45.1774 4.76579C45.3759 5.23752 45.7817 5.6156 46.3131 5.7581C46.4104 5.78416 46.5081 5.80126 46.605 5.80996L46.6033 7.89449L50.4313 3.51233L48.4693 3.98121C48.4693 3.98097 48.4693 3.98074 48.4693 3.9805L47.6091 4.18564C47.6049 4.23011 47.5963 4.2748 47.5847 4.31935Z" fill="#CD3B3B"/>
<path d="M47.2937 4.24145C47.214 4.53791 46.9102 4.71406 46.6144 4.63481C46.3187 4.55557 46.1434 4.251 46.2227 3.95452C46.302 3.65804 46.6063 3.48192 46.902 3.56115C47.1977 3.64038 47.373 3.94496 47.2937 4.24145Z" fill="#CD3B3B"/>
</g>
<defs>
<linearGradient id="paint0_linear_92_2042" x1="41.1429" y1="25.9941" x2="41.1429" y2="23.8513" gradientUnits="userSpaceOnUse">
<stop stop-color="white"/>
<stop offset="1" stop-color="#F9F9F9"/>
</linearGradient>
<clipPath id="clip0_92_2042">
<rect width="106.286" height="48" fill="white"/>
</clipPath>
</defs>
</svg>
