<svg viewBox="0 0 257 112" fill="none" xmlns="http://www.w3.org/2000/svg">
    <path
        d="M73.2305 111.683V94.3517H76.0045L79.2806 103.625C79.4919 104.206 79.6857 104.787 79.8618 105.369C80.0555 105.95 80.2493 106.566 80.443 107.218H80.5487C80.7424 106.566 80.9274 105.95 81.1035 105.369C81.2796 104.787 81.4646 104.206 81.6583 103.625L84.9344 94.3517H87.682V111.683H85.6213V102.145C85.6213 101.635 85.6389 101.062 85.6741 100.428C85.7093 99.7941 85.7446 99.1689 85.7798 98.5524C85.8326 97.9184 85.8855 97.3459 85.9383 96.8351H85.8326L84.4852 101.009L81.2356 109.966H79.624L76.3744 101.009L75.027 96.8351H74.9213C74.9742 97.3459 75.0182 97.9184 75.0534 98.5524C75.1063 99.1689 75.1503 99.7941 75.1855 100.428C75.2207 101.062 75.2384 101.635 75.2384 102.145V111.683H73.2305Z"
        fill="#333333" />
    <path
        d="M90.9201 111.683L96.7852 94.3517H99.2687L105.134 111.683H102.809L99.7706 101.987C99.4536 101.018 99.1542 100.058 98.8724 99.1072C98.5906 98.1385 98.3087 97.1522 98.0269 96.1482H97.9213C97.6571 97.1522 97.3841 98.1385 97.1023 99.1072C96.8204 100.058 96.521 101.018 96.204 101.987L93.1393 111.683H90.9201ZM93.9847 106.399V104.655H101.99V106.399H93.9847Z"
        fill="#333333" />
    <path
        d="M108.356 111.683V94.3517H110.76L116.916 105.131C117.251 105.712 117.568 106.32 117.867 106.954C118.167 107.57 118.466 108.204 118.766 108.856H118.871C118.818 107.958 118.757 107.042 118.686 106.108C118.616 105.157 118.581 104.241 118.581 103.361V94.3517H120.694V111.683H118.29L112.134 100.904C111.817 100.323 111.491 99.7149 111.157 99.0808C110.84 98.4467 110.54 97.8127 110.258 97.1786H110.153C110.223 98.0416 110.285 98.9311 110.338 99.847C110.408 100.763 110.443 101.688 110.443 102.621V111.683H108.356Z"
        fill="#333333" />
    <path
        d="M123.956 111.683L129.821 94.3517H132.305L138.17 111.683H135.845L132.807 101.987C132.489 101.018 132.19 100.058 131.908 99.1072C131.626 98.1385 131.345 97.1522 131.063 96.1482H130.957C130.693 97.1522 130.42 98.1385 130.138 99.1072C129.856 100.058 129.557 101.018 129.24 101.987L126.175 111.683H123.956ZM127.021 106.399V104.655H135.026V106.399H127.021Z"
        fill="#333333" />
    <path
        d="M147.95 112C146.418 112 145.062 111.648 143.882 110.943C142.719 110.221 141.803 109.191 141.134 107.852C140.465 106.514 140.13 104.902 140.13 103.017C140.13 101.626 140.324 100.375 140.711 99.2658C141.116 98.1561 141.671 97.2138 142.376 96.4389C143.098 95.6463 143.943 95.0474 144.912 94.6423C145.881 94.2372 146.938 94.0347 148.082 94.0347C149.28 94.0347 150.284 94.2548 151.094 94.6952C151.922 95.1355 152.583 95.6287 153.076 96.1747L151.86 97.5485C151.438 97.0905 150.927 96.7119 150.328 96.4124C149.747 96.113 149.016 95.9633 148.135 95.9633C146.973 95.9633 145.96 96.2539 145.097 96.8351C144.234 97.3988 143.565 98.2002 143.089 99.2393C142.631 100.279 142.402 101.52 142.402 102.965C142.402 104.426 142.622 105.686 143.063 106.743C143.521 107.799 144.172 108.618 145.018 109.2C145.881 109.781 146.929 110.071 148.162 110.071C148.778 110.071 149.368 109.983 149.932 109.807C150.495 109.613 150.945 109.358 151.279 109.041V104.523H147.607V102.7H153.287V109.992C152.741 110.573 152.001 111.058 151.068 111.445C150.152 111.815 149.113 112 147.95 112Z"
        fill="#333333" />
    <path
        d="M158.233 111.683V94.3517H168.219V96.2011H160.425V101.644H167.004V103.519H160.425V109.807H168.483V111.683H158.233Z"
        fill="#333333" />
    <path
        d="M172.957 111.683V94.3517H178.373C179.553 94.3517 180.601 94.5102 181.517 94.8273C182.433 95.1267 183.147 95.6375 183.657 96.3596C184.186 97.0641 184.45 98.0152 184.45 99.2129C184.45 100.375 184.186 101.335 183.657 102.093C183.147 102.85 182.433 103.422 181.517 103.81C180.601 104.18 179.553 104.365 178.373 104.365H175.15V111.683H172.957ZM175.15 102.568H178.056C179.413 102.568 180.452 102.295 181.174 101.749C181.896 101.186 182.257 100.34 182.257 99.2129C182.257 98.0857 181.896 97.2931 181.174 96.8351C180.452 96.3596 179.413 96.1218 178.056 96.1218H175.15V102.568ZM182.468 111.683L177.951 103.757L179.668 102.595L184.952 111.683H182.468Z"
        fill="#333333" />
    <path d="M0 0V21.6161H32.4241V32.1327L54.0401 53.7487V21.6161H86.4642V0H0Z" fill="#CD3B3B" />
    <path d="M32.4241 42.3226V86.4642H54.0401V63.9387L32.4241 42.3226Z" fill="#333333" />
    <path
        d="M147.681 36.0268C144.713 27.6311 136.706 21.6161 127.295 21.6161C118.283 21.6161 110.559 27.1305 107.314 34.9691L91.4297 19.0846C99.1967 7.57134 112.361 0 127.295 0C148.716 0 166.499 15.58 169.929 36.0268H147.681Z"
        fill="#CD3B3B" />
    <path
        d="M127.295 64.8482C136.706 64.8482 144.713 58.8331 147.681 50.4375H169.929C166.499 70.8842 148.716 86.4642 127.295 86.4642C103.418 86.4642 84.0625 67.1086 84.0625 43.2321C84.0625 36.9667 85.3953 31.0126 87.7929 25.6378L105.681 43.5255C105.837 55.3285 115.454 64.8482 127.295 64.8482Z"
        fill="#333333" />
    <path
        d="M234.145 36.0268C231.177 27.6311 223.17 21.6161 213.759 21.6161C205.39 21.6161 198.132 26.3721 194.54 33.3288L178.886 17.6751C186.754 6.95736 199.444 0 213.759 0C235.18 0 252.963 15.58 256.393 36.0268H234.145Z"
        fill="#CD3B3B" />
    <path
        d="M225.749 61.2209C222.318 63.5123 218.194 64.8482 213.759 64.8482C201.821 64.8482 192.143 55.1703 192.143 43.2321C192.143 42.5518 192.174 41.8789 192.236 41.2146L175.027 24.0056C172.146 29.7967 170.527 36.3253 170.527 43.2321C170.527 67.1086 189.882 86.4642 213.759 86.4642C221.142 86.4642 228.094 84.6132 234.174 81.3499V85.2633H254.589V50.4375H217.361L225.749 61.2209Z"
        fill="#333333" />
    <rect y="102.076" width="68.4509" height="1.20089" fill="#333333" />
    <rect x="188.54" y="102.076" width="68.4509" height="1.20089" fill="#333333" />
</svg>
    