<svg viewBox="0 0 248 112" fill="none" xmlns="http://www.w3.org/2000/svg">
<g clip-path="url(#clip0_12_1164)">
<path d="M19.4464 43.997V49.629H13.4304V66.653H6.32639V49.629H0.37439V43.997H19.4464ZM23.7731 55.293C23.7731 53.053 24.2211 51.0583 25.1171 49.309C26.0345 47.5597 27.3358 46.205 29.0211 45.245C30.7065 44.2637 32.6905 43.773 34.9731 43.773C36.9358 43.773 38.6851 44.1463 40.2211 44.893C41.7785 45.6183 43.0371 46.653 43.9971 47.997C44.9785 49.341 45.6291 50.909 45.9491 52.701H38.4611C38.1198 51.9543 37.6291 51.3783 36.9891 50.973C36.3705 50.5463 35.6558 50.333 34.8451 50.333C33.6505 50.333 32.7011 50.781 31.9971 51.677C31.3145 52.573 30.9731 53.7783 30.9731 55.293C30.9731 56.8077 31.3145 58.013 31.9971 58.909C32.7011 59.805 33.6505 60.253 34.8451 60.253C35.6558 60.253 36.3705 60.0503 36.9891 59.645C37.6291 59.2183 38.1198 58.6317 38.4611 57.885H45.9491C45.6291 59.677 44.9785 61.245 43.9971 62.589C43.0371 63.933 41.7785 64.9783 40.2211 65.725C38.6851 66.4503 36.9358 66.813 34.9731 66.813C32.6905 66.813 30.7065 66.333 29.0211 65.373C27.3358 64.3917 26.0345 63.0263 25.1171 61.277C24.2211 59.5277 23.7731 57.533 23.7731 55.293ZM65.4349 51.741C65.1575 51.293 64.7629 50.9517 64.2509 50.717C63.7389 50.461 63.1202 50.333 62.3949 50.333C61.0295 50.333 59.9735 50.781 59.2269 51.677C58.4802 52.5517 58.1069 53.757 58.1069 55.293C58.1069 57.0637 58.5229 58.3863 59.3549 59.261C60.1869 60.1357 61.4669 60.573 63.1949 60.573C64.8375 60.573 66.1602 59.9117 67.1629 58.589H61.4989V53.565H73.0509V60.669C72.0695 62.3543 70.7149 63.805 68.9869 65.021C67.2589 66.2157 65.0722 66.813 62.4269 66.813C60.0802 66.813 58.0322 66.333 56.2829 65.373C54.5549 64.3917 53.2215 63.0263 52.2829 61.277C51.3655 59.5277 50.9069 57.533 50.9069 55.293C50.9069 53.053 51.3655 51.0583 52.2829 49.309C53.2215 47.5597 54.5549 46.205 56.2829 45.245C58.0109 44.2637 60.0375 43.773 62.3629 43.773C65.3282 43.773 67.7389 44.4877 69.5949 45.917C71.4722 47.3463 72.5815 49.2877 72.9229 51.741H65.4349Z" fill="#FFCB04"/>
<path d="M105.881 43.997V66.653H98.8094V55.357L95.3214 66.653H89.2414L85.7534 55.357V66.653H78.6494V43.997H87.3534L92.3454 57.597L97.2094 43.997H105.881ZM111.167 57.629C111.167 55.7303 111.487 54.0877 112.127 52.701C112.788 51.293 113.684 50.2263 114.815 49.501C115.946 48.7543 117.215 48.381 118.623 48.381C119.796 48.381 120.81 48.6263 121.663 49.117C122.516 49.5863 123.167 50.237 123.615 51.069V48.605H130.687V66.653H123.615V64.189C123.167 65.021 122.516 65.6823 121.663 66.173C120.81 66.6423 119.796 66.877 118.623 66.877C117.215 66.877 115.946 66.5143 114.815 65.789C113.684 65.0423 112.788 63.9757 112.127 62.589C111.487 61.181 111.167 59.5277 111.167 57.629ZM123.615 57.629C123.615 56.669 123.37 55.9223 122.879 55.389C122.388 54.8557 121.759 54.589 120.991 54.589C120.223 54.589 119.594 54.8557 119.103 55.389C118.612 55.9223 118.367 56.669 118.367 57.629C118.367 58.589 118.612 59.3357 119.103 59.869C119.594 60.4023 120.223 60.669 120.991 60.669C121.759 60.669 122.388 60.4023 122.879 59.869C123.37 59.3357 123.615 58.589 123.615 57.629ZM149.557 48.477C151.626 48.477 153.237 49.1703 154.389 50.557C155.562 51.9437 156.149 53.821 156.149 56.189V66.653H149.077V57.085C149.077 56.2317 148.842 55.5597 148.373 55.069C147.925 54.557 147.317 54.301 146.549 54.301C145.76 54.301 145.141 54.557 144.693 55.069C144.245 55.5597 144.021 56.2317 144.021 57.085V66.653H136.917V48.605H144.021V51.357C144.576 50.5037 145.312 49.8103 146.229 49.277C147.168 48.7437 148.277 48.477 149.557 48.477ZM161.309 57.629C161.309 55.7303 161.629 54.0877 162.269 52.701C162.931 51.293 163.827 50.2263 164.957 49.501C166.088 48.7543 167.357 48.381 168.765 48.381C169.939 48.381 170.952 48.6263 171.805 49.117C172.659 49.5863 173.309 50.237 173.757 51.069V48.605H180.829V66.653H173.757V64.189C173.309 65.021 172.659 65.6823 171.805 66.173C170.952 66.6423 169.939 66.877 168.765 66.877C167.357 66.877 166.088 66.5143 164.957 65.789C163.827 65.0423 162.931 63.9757 162.269 62.589C161.629 61.181 161.309 59.5277 161.309 57.629ZM173.757 57.629C173.757 56.669 173.512 55.9223 173.021 55.389C172.531 54.8557 171.901 54.589 171.133 54.589C170.365 54.589 169.736 54.8557 169.245 55.389C168.755 55.9223 168.509 56.669 168.509 57.629C168.509 58.589 168.755 59.3357 169.245 59.869C169.736 60.4023 170.365 60.669 171.133 60.669C171.901 60.669 172.531 60.4023 173.021 59.869C173.512 59.3357 173.757 58.589 173.757 57.629ZM193.555 48.381C194.729 48.381 195.742 48.6263 196.595 49.117C197.449 49.5863 198.099 50.237 198.547 51.069V48.605H205.619V66.333C205.619 68.0183 205.31 69.5543 204.691 70.941C204.073 72.3277 203.07 73.437 201.683 74.269C200.318 75.101 198.558 75.517 196.403 75.517C193.502 75.517 191.198 74.8343 189.491 73.469C187.806 72.125 186.846 70.2903 186.611 67.965H193.587C193.779 68.9037 194.547 69.373 195.891 69.373C196.723 69.373 197.374 69.1597 197.843 68.733C198.313 68.3063 198.547 67.5063 198.547 66.333V64.189C198.099 65.021 197.449 65.6823 196.595 66.173C195.742 66.6423 194.729 66.877 193.555 66.877C192.147 66.877 190.878 66.5143 189.747 65.789C188.617 65.0423 187.721 63.9757 187.059 62.589C186.419 61.181 186.099 59.5277 186.099 57.629C186.099 55.7303 186.419 54.0877 187.059 52.701C187.721 51.293 188.617 50.2263 189.747 49.501C190.878 48.7543 192.147 48.381 193.555 48.381ZM198.547 57.629C198.547 56.669 198.302 55.9223 197.811 55.389C197.321 54.8557 196.691 54.589 195.923 54.589C195.155 54.589 194.526 54.8557 194.035 55.389C193.545 55.9223 193.299 56.669 193.299 57.629C193.299 58.589 193.545 59.3357 194.035 59.869C194.526 60.4023 195.155 60.669 195.923 60.669C196.691 60.669 197.321 60.4023 197.811 59.869C198.302 59.3357 198.547 58.589 198.547 57.629ZM229.321 57.469C229.321 57.9597 229.289 58.429 229.225 58.877H217.801C217.908 60.4343 218.559 61.213 219.753 61.213C220.521 61.213 221.076 60.861 221.417 60.157H228.937C228.681 61.437 228.137 62.589 227.305 63.613C226.495 64.6157 225.46 65.4157 224.201 66.013C222.964 66.589 221.599 66.877 220.105 66.877C218.313 66.877 216.713 66.5037 215.305 65.757C213.919 65.0103 212.831 63.9437 212.041 62.557C211.273 61.149 210.889 59.5063 210.889 57.629C210.889 55.7517 211.273 54.1197 212.041 52.733C212.831 51.325 213.919 50.2477 215.305 49.501C216.713 48.7543 218.313 48.381 220.105 48.381C221.897 48.381 223.487 48.7543 224.873 49.501C226.281 50.2263 227.369 51.2717 228.137 52.637C228.927 54.0023 229.321 55.613 229.321 57.469ZM222.121 55.773C222.121 55.1757 221.929 54.7277 221.545 54.429C221.161 54.109 220.681 53.949 220.105 53.949C218.847 53.949 218.111 54.557 217.897 55.773H222.121ZM241.712 51.933C242.437 50.8877 243.323 50.0557 244.368 49.437C245.413 48.797 246.501 48.477 247.632 48.477V56.061H245.616C244.272 56.061 243.28 56.2957 242.64 56.765C242.021 57.2343 241.712 58.0663 241.712 59.261V66.653H234.608V48.605H241.712V51.933Z" fill="url(#paint0_linear_12_1164)"/>
<path fill-rule="evenodd" clip-rule="evenodd" d="M108.677 0.205934C105.477 -0.651717 102.187 1.24778 101.329 4.44857L94.0395 31.653H166.509L168.944 22.5659C169.801 19.3651 167.902 16.0751 164.701 15.2174L108.677 0.205934ZM153.647 79.653H81.178L78.5529 89.45C77.6952 92.6508 79.5947 95.9409 82.7955 96.7985L138.819 111.81C142.02 112.668 145.31 110.768 146.168 107.567L153.647 79.653Z" fill="#9A9A9A"/>
<path d="M112.787 7.99542L110.78 8.47431C110.521 8.07245 110.118 7.762 109.62 7.62868C108.556 7.34335 107.46 7.97757 107.174 9.04525C107.147 9.14614 107.128 9.24729 107.117 9.34799L105.109 9.82703C105.082 9.40066 105.122 8.96245 105.239 8.52668C105.812 6.38731 108.007 5.1165 110.14 5.68823C111.378 6.01984 112.323 6.89846 112.787 7.99542Z" fill="white"/>
<path d="M111.031 10.0785C110.744 11.1462 109.649 11.7804 108.584 11.4951C108.084 11.3609 107.679 11.0473 107.42 10.6416L105.414 11.1202C105.877 12.2209 106.824 13.1031 108.064 13.4356C108.291 13.4964 108.519 13.5363 108.745 13.5566L108.741 18.4205L117.673 8.19547L113.095 9.28951C113.095 9.28896 113.095 9.28841 113.095 9.28786L111.088 9.76653C111.078 9.87029 111.058 9.97455 111.031 10.0785Z" fill="white"/>
<path d="M110.352 9.89665C110.166 10.5884 109.457 10.9994 108.767 10.8145C108.077 10.6296 107.668 9.91895 107.853 9.22715C108.038 8.53536 108.748 8.12442 109.438 8.3093C110.128 8.49417 110.537 9.20486 110.352 9.89665Z" fill="white"/>
</g>
<defs>
<linearGradient id="paint0_linear_12_1164" x1="96" y1="60.653" x2="96" y2="55.653" gradientUnits="userSpaceOnUse">
<stop/>
<stop offset="1" stop-color="#1C1C1C"/>
</linearGradient>
<clipPath id="clip0_12_1164">
<rect width="248" height="112" fill="white"/>
</clipPath>
</defs>
</svg>
